<svg width="121" height="36" viewBox="0 0 121 36" fill="none" xmlns="http://www.w3.org/2000/svg">
<path d="M17.9805 9.00868C17.9805 4.04303 22.0059 0.0175781 26.9716 0.0175781H35.9627V9.00868C35.9627 13.9743 31.9372 17.9998 26.9716 17.9998C22.0059 17.9998 17.9805 13.9743 17.9805 9.00868Z" fill="#14B890"/>
<path d="M8.98937 0.0175777C13.955 0.0175779 17.9805 4.04303 17.9805 9.00868L17.9805 17.9998L8.98937 17.9998C4.02372 17.9998 -0.00173439 13.9743 -0.00173417 9.00868C-0.00173396 4.04303 4.02372 0.0175775 8.98937 0.0175777Z" fill="#27E8B9"/>
<path d="M17.9805 26.9913C17.9805 31.957 13.955 35.9824 8.98937 35.9824L-0.00173569 35.9824L-0.0017349 26.9913C-0.00173447 22.0257 4.02372 18.0002 8.98937 18.0002C13.955 18.0002 17.9805 22.0257 17.9805 26.9913Z" fill="#14B890"/>
<path d="M26.9716 35.9824C22.0059 35.9824 17.9805 31.957 17.9805 26.9913L17.9805 18.0002L26.9716 18.0002C31.9372 18.0002 35.9627 22.0257 35.9627 26.9913C35.9627 31.957 31.9372 35.9824 26.9716 35.9824Z" fill="#27E8B9"/>
<path d="M46.1016 16.2271V2.40956H49.3783L53.0103 8.25239L56.6423 2.40956H59.9191V16.2271H56.8989V7.2062L53.0103 13.1082H52.9314L49.0822 7.26542V16.2271H46.1016Z" fill="white"/>
<path d="M62.9819 4.48218V1.81738H66.1402V4.48218H62.9819ZM63.0608 16.2271V5.6468H66.0612V16.2271H63.0608Z" fill="white"/>
<path d="M68.8791 16.2271V5.6468H71.8795V7.14699C72.7612 6.01527 73.7942 5.44941 74.9786 5.44941C76.1103 5.44941 76.992 5.79814 77.6236 6.49559C78.2553 7.19305 78.5711 8.15369 78.5711 9.37753V16.2271H75.5708V10.325C75.5708 9.62756 75.4129 9.09459 75.097 8.72613C74.7812 8.35766 74.3338 8.17343 73.7548 8.17343C73.1757 8.17343 72.7151 8.35766 72.373 8.72613C72.044 9.09459 71.8795 9.62756 71.8795 10.325V16.2271H68.8791Z" fill="white"/>
<path d="M84.7505 16.4047C83.7635 16.4047 83.0002 16.1678 82.4607 15.6941C81.9343 15.2072 81.6711 14.3847 81.6711 13.2267V8.21291H80.4078V5.6468H81.6711V2.94252H84.6715V5.6468H87.1586V8.21291H84.6715V12.7332C84.6715 13.4175 84.9939 13.7596 85.6387 13.7596C86.1651 13.7596 86.6586 13.6346 87.1192 13.3846V15.7928C86.4349 16.2007 85.6453 16.4047 84.7505 16.4047Z" fill="white"/>
<path d="M88.6399 16.2271L93.4562 9.19987L88.8373 2.40956H92.3903L95.292 6.89038L98.2134 2.40956H101.668L97.0488 9.16039L101.865 16.2271H98.3121L95.213 11.4896L92.0942 16.2271H88.6399Z" fill="white"/>
<path d="M46.2792 33.4989V23.4319H47.2464V25.2282C47.6412 24.5965 48.0952 24.103 48.6085 23.7477C49.1217 23.3792 49.7862 23.195 50.6021 23.195C52.1813 23.195 53.313 23.9188 53.9973 25.3663C54.8395 23.9188 56.0502 23.195 57.6293 23.195C58.8137 23.195 59.7546 23.5766 60.452 24.3399C61.1495 25.1031 61.4982 26.123 61.4982 27.3995V33.4989H60.531V27.5179C60.531 26.4388 60.2678 25.5966 59.7414 24.9913C59.215 24.386 58.4847 24.0833 57.5503 24.0833C56.6687 24.0833 55.9186 24.4057 55.3001 25.0505C54.6816 25.6953 54.3723 26.5573 54.3723 27.6364V33.4989H53.4051V27.4587C53.4051 26.4191 53.1353 25.5966 52.5958 24.9913C52.0694 24.386 51.3588 24.0833 50.4639 24.0833C49.5691 24.0833 48.8058 24.432 48.1742 25.1295C47.5557 25.8269 47.2464 26.6823 47.2464 27.6956V33.4989H46.2792Z" fill="white"/>
<path d="M68.1142 33.7358C67.0878 33.7358 66.1798 33.4529 65.3902 32.887C64.6138 32.3211 64.2256 31.5382 64.2256 30.538C64.2256 29.5116 64.627 28.7089 65.4297 28.1298C66.2324 27.5508 67.2984 27.2613 68.6275 27.2613C69.7592 27.2613 70.8712 27.4061 71.9634 27.6956V27.2613C71.9634 26.2612 71.6739 25.4979 71.0949 24.9716C70.5159 24.4452 69.7 24.182 68.6472 24.182C67.5944 24.182 66.5417 24.4518 65.4889 24.9913L65.1336 24.1425C66.3838 23.5635 67.5747 23.274 68.7064 23.274C70.0882 23.274 71.1475 23.6424 71.8845 24.3794C72.5687 25.0637 72.9109 26.0112 72.9109 27.2218V33.4989H71.9634V31.8211C71.0554 33.0976 69.7723 33.7358 68.1142 33.7358ZM68.1735 32.8278C69.2262 32.8278 70.1211 32.5383 70.858 31.9593C71.6081 31.3671 71.9832 30.6236 71.9832 29.7287V28.5838C70.7988 28.2812 69.6605 28.1298 68.5683 28.1298C67.5155 28.1298 66.6996 28.347 66.1206 28.7812C65.5416 29.2023 65.2521 29.7814 65.2521 30.5183C65.2521 31.2157 65.535 31.775 66.1008 32.1961C66.6799 32.6172 67.3707 32.8278 68.1735 32.8278Z" fill="white"/>
<path d="M76.3893 33.4989V23.4319H77.3566V26.2941C77.7645 25.3729 78.3633 24.6294 79.1528 24.0635C79.9556 23.4977 80.8438 23.2345 81.8176 23.274V24.3399H81.7189C80.4951 24.3399 79.4621 24.7873 78.6199 25.6822C77.7777 26.577 77.3566 27.8074 77.3566 29.3734V33.4989H76.3893Z" fill="white"/>
<path d="M84.2927 33.4989V19.0892H85.26V29.8866L91.4976 23.4319H92.7806L88.3788 27.893L92.9188 33.4989H91.695L87.7076 28.5838L85.26 31.0512V33.4989H84.2927Z" fill="white"/>
<path d="M99.081 33.7358C97.7256 33.7358 96.561 33.2423 95.5872 32.2553C94.6265 31.2684 94.1462 29.9985 94.1462 28.4457C94.1462 26.9718 94.6002 25.7282 95.5082 24.7149C96.4294 23.7017 97.5677 23.195 98.9231 23.195C100.305 23.195 101.417 23.6951 102.259 24.6952C103.114 25.6953 103.542 26.9521 103.542 28.4654C103.542 28.6233 103.536 28.7549 103.522 28.8602H95.1726C95.2648 30.0709 95.6859 31.0381 96.436 31.7619C97.1992 32.4725 98.0941 32.8278 99.1205 32.8278C100.436 32.8278 101.588 32.3014 102.575 31.2486L103.246 31.8408C102.075 33.1041 100.686 33.7358 99.081 33.7358ZM95.1726 27.9917H102.496C102.417 26.8863 102.068 25.9585 101.45 25.2084C100.831 24.4583 99.9759 24.0833 98.8836 24.0833C97.8967 24.0833 97.0545 24.4583 96.357 25.2084C95.6595 25.9454 95.2648 26.8731 95.1726 27.9917Z" fill="white"/>
<path d="M109.72 33.6766C108.891 33.6766 108.213 33.4463 107.687 32.9857C107.161 32.512 106.897 31.8211 106.897 30.9131V24.3202H105.437V23.4319H106.897V20.2144H107.865V23.4319H111.398V24.3202H107.865V30.8144C107.865 32.1172 108.536 32.7686 109.878 32.7686C110.339 32.7686 110.832 32.6501 111.359 32.4133V33.3213C110.845 33.5581 110.299 33.6766 109.72 33.6766Z" fill="white"/>
<path d="M117.525 33.6963C116.801 33.6963 116.064 33.5647 115.314 33.3015C114.577 33.0252 113.939 32.6699 113.399 32.2356L113.972 31.4658C115.117 32.3475 116.321 32.7883 117.584 32.7883C118.282 32.7883 118.861 32.6106 119.321 32.2553C119.782 31.9 120.012 31.4263 120.012 30.8341C120.012 30.2946 119.782 29.8866 119.321 29.6103C118.874 29.3339 118.216 29.0707 117.347 28.8207C116.887 28.6891 116.551 28.5904 116.341 28.5246C116.13 28.4588 115.834 28.3404 115.452 28.1693C115.071 27.9982 114.788 27.8272 114.603 27.6561C114.432 27.485 114.268 27.2613 114.11 26.985C113.965 26.6954 113.893 26.373 113.893 26.0177C113.893 25.2018 114.202 24.5373 114.821 24.0241C115.439 23.4977 116.235 23.2345 117.209 23.2345C118.486 23.2345 119.676 23.603 120.782 24.3399L120.269 25.1492C119.255 24.4781 118.222 24.1425 117.17 24.1425C116.485 24.1425 115.933 24.3136 115.512 24.6557C115.09 24.9847 114.88 25.4124 114.88 25.9388C114.88 26.1493 114.932 26.3467 115.038 26.531C115.156 26.7152 115.288 26.8665 115.433 26.985C115.59 27.1034 115.808 27.2284 116.084 27.36C116.373 27.4784 116.617 27.5706 116.814 27.6364C117.025 27.7022 117.314 27.7877 117.683 27.893C118.183 28.0377 118.591 28.1693 118.907 28.2877C119.222 28.4062 119.558 28.5773 119.913 28.801C120.282 29.0247 120.552 29.301 120.723 29.63C120.907 29.9459 120.999 30.3209 120.999 30.7552C120.999 31.6368 120.663 32.3475 119.992 32.887C119.334 33.4265 118.512 33.6963 117.525 33.6963Z" fill="white"/>
</svg>
